<svg width="823" height="822" viewBox="0 0 823 822" fill="none" xmlns="http://www.w3.org/2000/svg">
<mask id="mask0_6_89" style="mask-type:luminance" maskUnits="userSpaceOnUse" x="251" y="0" width="308" height="339">
<path d="M251.218 0H558.571V338.569H251.218V0Z" fill="white"/>
</mask>
<g mask="url(#mask0_6_89)">
<path d="M321.106 145.525C321.106 97.8803 359.904 59.0821 407.549 59.0821C455.257 59.0821 494.055 97.8803 494.055 145.525V324.92H553.137V145.525C553.137 65.2746 487.799 0 407.549 0C327.298 0 262.024 65.2746 262.024 145.525V230.325H321.106V145.525Z" fill="#3871C1"/>
</g>
<mask id="mask1_6_89" style="mask-type:luminance" maskUnits="userSpaceOnUse" x="269" y="496" width="293" height="326">
<path d="M269.796 496.795H561.731V821.714H269.796V496.795Z" fill="white"/>
</mask>
<g mask="url(#mask1_6_89)">
<path d="M502.143 676.189C502.143 723.834 463.345 762.632 415.637 762.632C367.992 762.632 329.194 723.834 329.194 676.189V496.795H270.112V676.189C270.112 756.44 335.387 821.714 415.637 821.714C495.888 821.714 561.162 756.44 561.162 676.189V591.389H502.143V676.189Z" fill="#36AB9C"/>
</g>
<mask id="mask2_6_89" style="mask-type:luminance" maskUnits="userSpaceOnUse" x="0" y="257" width="333" height="309">
<path d="M0.734863 257.686H332.1V565.039H0.734863V257.686Z" fill="white"/>
</mask>
<g mask="url(#mask2_6_89)">
<path d="M59.8169 414.901C59.8169 367.193 98.6152 328.395 146.26 328.395H325.655V269.376H146.26C66.0095 269.376 0.734863 334.651 0.734863 414.901C0.734863 495.152 66.0095 560.426 146.26 560.426H231.06V501.344H146.26C98.6152 501.344 59.8169 462.609 59.8169 414.901Z" fill="#3871C1"/>
</g>
<mask id="mask3_6_89" style="mask-type:luminance" maskUnits="userSpaceOnUse" x="497" y="261" width="326" height="293">
<path d="M497.53 261.162H822.45V553.033H497.53V261.162Z" fill="white"/>
</mask>
<g mask="url(#mask3_6_89)">
<path d="M676.925 261.288H592.188V320.37H676.925C724.633 320.37 763.431 359.105 763.431 406.813C763.431 454.521 724.633 493.319 676.925 493.319H497.53V552.338H676.925C757.176 552.338 822.45 487.064 822.45 406.813C822.45 326.563 757.176 261.288 676.925 261.288Z" fill="#36AB9C"/>
</g>
<mask id="mask4_6_89" style="mask-type:luminance" maskUnits="userSpaceOnUse" x="270" y="279" width="279" height="315">
<path d="M270.049 279.423H548.019V593.6H270.049V279.423Z" fill="white"/>
</mask>
<g mask="url(#mask4_6_89)">
<path d="M477.942 391.014C479.079 395.058 479.711 399.608 479.711 404.726C479.711 413.825 477.752 422.609 474.213 430.697C479.395 426.906 484.071 423.114 488.621 419.576C504.608 407.127 519.773 402.767 531.463 402.009C537.719 401.63 548.019 396.764 548.019 391.014H477.942ZM475.667 404.726C475.667 372.752 446.473 364.032 420.566 359.862C394.405 355.691 364.201 346.339 364.201 318.283C364.201 304.508 372.794 290.859 387.454 290.859C409.065 290.859 412.793 307.288 412.92 309.689C412.983 312.027 406.601 313.67 405.779 318.346C404.831 323.97 407.233 329.594 410.771 334.08C413.868 338.125 418.417 346.339 422.904 345.581C427.706 344.823 429.475 336.545 430.802 331.111C432.193 325.676 434.531 321.063 432.256 316.008C429.475 309.753 426.695 312.849 424.547 308.299C423.283 305.708 418.48 279.485 389.603 279.485C369.445 279.485 351.057 296.167 349.288 315.187C346.697 342.358 357.376 352.658 379.872 363.337C414.942 379.956 451.339 379.261 451.339 402.578C451.339 425.389 443.63 437.521 430.297 446.368C427.959 447.885 423.599 449.907 419.302 451.36V467.41C420.187 467.284 421.134 467.157 422.019 466.968C451.908 461.913 475.667 435.12 475.667 404.726ZM441.165 391.014H270.049C270.049 396.764 280.348 401.63 286.604 402.009C298.357 402.767 313.46 407.127 329.447 419.576C345.813 432.34 364.264 449.148 402.809 450.728V500.079C405.084 500.458 407.549 500.711 410.329 500.711C411.466 500.711 413.236 500.648 415.258 500.395V448.39C435.921 443.777 447.232 426.084 447.232 402.578C447.232 397.775 445.273 394.11 441.165 391.014ZM402.809 537.74C406.285 539.825 410.582 540.773 415.258 541.405V522.195C411.087 522.448 406.917 522.385 402.809 522.006V537.74ZM443.946 553.284C437.311 548.229 428.654 547.029 413.299 545.133C395.037 542.921 390.235 531.358 389.729 519.225C384.99 517.646 380.63 515.434 376.839 512.59C375.954 516.761 375.575 521.058 375.575 525.418C375.575 543.68 395.164 551.452 409.065 553.474C423.472 555.559 436.932 556.065 438.827 556.886C440.723 557.708 441.924 558.655 442.682 559.54C443.503 560.425 445.652 561.689 447.042 560.804C448.369 559.919 447.295 555.812 443.946 553.284ZM394.848 497.172C395.985 495.972 397.312 494.961 398.765 494.013V482.828C395.29 484.787 392.32 486.999 389.729 489.4C389.729 492.433 391.499 495.15 394.848 497.172ZM434.404 491.927C434.404 500.648 423.093 504.818 410.329 504.818C397.502 504.818 385.622 499.763 385.622 489.4C385.622 476.699 390.867 472.149 398.765 470.127V452.245C381.388 453.572 367.107 469.622 367.107 483.271C367.107 493.191 368.877 508.799 396.238 516.761C425.052 525.039 458.163 506.777 458.163 488.515C458.163 479.669 453.677 475.372 447.737 473.476C442.808 471.96 436.995 469.748 419.365 474.866V486.177C422.145 485.356 424.61 484.913 427.074 484.913C432.066 484.913 434.404 486.556 434.404 491.927ZM340.252 593.662H477.815C477.815 591.388 470.548 588.102 464.23 587.596C457.911 587.027 449.443 586.712 447.548 585.069C444.957 582.794 440.786 581.214 435.352 579.887C429.728 578.56 415.258 577.36 415.258 569.398V558.339C412.983 558.087 410.708 557.834 408.433 557.518C406.727 557.265 404.831 556.949 402.809 556.444V569.398C402.809 577.36 388.339 578.56 382.778 579.887C377.281 581.214 373.11 582.794 370.52 585.069C368.624 586.712 360.157 587.027 353.838 587.596C347.582 588.102 340.252 591.388 340.252 593.662Z" fill="#00007F"/>
</g>
<path d="M126.273 452H123.182L156.455 358.909H160.455L193.727 452H190.636L158.636 362.545H158.273L126.273 452ZM136.818 417.636H180.091V420.545H136.818V417.636Z" fill="#36AB9C"/>
<path d="M665.909 452H641.545V358.909H668.273C676.848 358.909 684.182 360.758 690.273 364.455C696.394 368.121 701.076 373.394 704.318 380.273C707.591 387.152 709.212 395.424 709.182 405.091C709.152 415 707.424 423.455 704 430.455C700.606 437.424 695.682 442.758 689.227 446.455C682.803 450.152 675.03 452 665.909 452ZM644.455 449.091H665.909C674.515 449.091 681.833 447.348 687.864 443.864C693.894 440.348 698.47 435.303 701.591 428.727C704.742 422.152 706.303 414.273 706.273 405.091C706.242 396.03 704.727 388.273 701.727 381.818C698.758 375.364 694.455 370.424 688.818 367C683.182 363.545 676.333 361.818 668.273 361.818H644.455V449.091Z" fill="#3871C1"/>
</svg>
